<?xml version="1.0" encoding="utf-8"?>
<!-- Generator: Adobe Illustrator 16.0.0, SVG Export Plug-In . SVG Version: 6.00 Build 0)  -->
<!DOCTYPE svg PUBLIC "-//W3C//DTD SVG 1.1//EN" "http://www.w3.org/Graphics/SVG/1.1/DTD/svg11.dtd">
<svg version="1.1" id="Calque_1" xmlns="http://www.w3.org/2000/svg" xmlns:xlink="http://www.w3.org/1999/xlink" x="0px" y="0px"
	 width="24px" height="20px" viewBox="0 0 30 30" enable-background="new 0 0 30 30" xml:space="preserve">
<g>
	<path fill="#00a8a3" d="M27.384,2.931h-4.027V1.072c0-0.514-0.415-0.929-0.927-0.929c-0.514,0-0.93,0.415-0.93,0.929v1.858h-5.572
		V1.072c0-0.514-0.415-0.929-0.927-0.929c-0.512,0-0.929,0.415-0.929,0.929v1.858H8.5V1.072c0-0.514-0.415-0.929-0.929-0.929
		c-0.512,0-0.929,0.415-0.929,0.929v1.858H2.619c-1.366,0-2.477,1.107-2.477,2.474v21.978c0,1.369,1.11,2.475,2.477,2.475h24.765
		c1.368,0,2.474-1.105,2.474-2.475V5.404C29.857,4.038,28.752,2.931,27.384,2.931 M28,27.382c0,0.341-0.276,0.619-0.616,0.619H2.619
		c-0.342,0-0.618-0.278-0.618-0.619V5.404c0-0.34,0.276-0.617,0.618-0.617h4.023v1.856c0,0.514,0.417,0.93,0.929,0.93
		c0.514,0,0.929-0.416,0.929-0.93V4.787h5.571v1.856c0,0.514,0.417,0.93,0.929,0.93c0.513,0,0.927-0.416,0.927-0.93V4.787H21.5
		v1.856c0,0.514,0.416,0.93,0.93,0.93c0.512,0,0.927-0.416,0.927-0.93V4.787h4.027c0.34,0,0.616,0.277,0.616,0.617V27.382z"/>
	<rect x="6.643" y="11.288" fill="#00a8a3" width="3.714" height="2.785"/>
	<rect x="6.643" y="15.93" fill="#00a8a3" width="3.714" height="2.786"/>
	<rect x="6.643" y="20.572" fill="#00a8a3" width="3.714" height="2.786"/>
	<rect x="13.145" y="20.572" fill="#00a8a3" width="3.712" height="2.786"/>
	<rect x="13.145" y="15.93" fill="#00a8a3" width="3.712" height="2.786"/>
	<rect x="13.145" y="11.288" fill="#00a8a3" width="3.712" height="2.785"/>
	<rect x="19.643" y="20.572" fill="#00a8a3" width="3.713" height="2.786"/>
	<rect x="19.643" y="15.93" fill="#00a8a3" width="3.713" height="2.786"/>
	<rect x="19.643" y="11.288" fill="#00a8a3" width="3.713" height="2.785"/>
</g>
</svg>
