<?xml version="1.0" encoding="utf-8"?>
<!-- Generator: Adobe Illustrator 16.0.0, SVG Export Plug-In . SVG Version: 6.00 Build 0)  -->
<!DOCTYPE svg PUBLIC "-//W3C//DTD SVG 1.1//EN" "http://www.w3.org/Graphics/SVG/1.1/DTD/svg11.dtd">
<svg version="1.1" id="Calque_1" xmlns="http://www.w3.org/2000/svg" xmlns:xlink="http://www.w3.org/1999/xlink" x="0px" y="0px"
	 width="50px" height="65px" viewBox="0 0 50 65" enable-background="new 0 0 50 65" xml:space="preserve">
<g>
	<g>
		<path fill="#fcc200" d="M4.745,51.313H4.499C2.019,51.313,0,49.297,0,46.817V31.12c0-2.479,2.018-4.497,4.499-4.497h0.246
			c2.479,0,4.496,2.017,4.496,4.497v15.697C9.24,49.297,7.224,51.313,4.745,51.313z M4.499,30.25c-0.48,0-0.872,0.39-0.872,0.87
			v15.697c0,0.479,0.391,0.868,0.872,0.868h0.246c0.479,0,0.869-0.39,0.869-0.868V31.12c0-0.479-0.39-0.87-0.869-0.87H4.499z"/>
	</g>
	<g>
		<path fill="#fcc200" d="M45.502,51.302H45.26c-2.48,0-4.499-2.018-4.499-4.498V31.106c0-2.481,2.019-4.5,4.499-4.5h0.242
			c2.48,0,4.498,2.019,4.498,4.5v15.698C50,49.284,47.982,51.302,45.502,51.302z M45.26,30.233c-0.481,0-0.871,0.392-0.871,0.873
			v15.698c0,0.479,0.39,0.871,0.871,0.871h0.242c0.48,0,0.871-0.392,0.871-0.871V31.106c0-0.481-0.391-0.873-0.871-0.873H45.26z"/>
	</g>
	<g>
		<path fill="#fcc200" d="M50,31.05h-3.627v-5.242c-0.008-11.779-9.6-21.363-21.38-21.363c-11.781,0-21.366,9.584-21.366,21.363
			v5.242H0v-5.242c0-13.779,11.212-24.99,24.993-24.99c13.778,0,24.997,11.21,25.007,24.989V31.05z"/>
	</g>
	<g>
		<path fill="#fcc200" d="M36.846,61.37h-4.498v-3.627h4.498c4.817,0,9.527-6.257,9.527-10.926H50
			C50,53.368,43.93,61.37,36.846,61.37z"/>
	</g>
	<g>
		<path fill="#fcc200" d="M28.85,64.183h-5.286c-2.48,0-4.499-2.018-4.499-4.499v-0.242c0-2.479,2.018-4.498,4.499-4.498h5.286
			c2.48,0,4.498,2.019,4.498,4.498v0.242C33.348,62.165,31.33,64.183,28.85,64.183z M23.564,58.57c-0.48,0-0.872,0.391-0.872,0.871
			v0.242c0,0.482,0.391,0.871,0.872,0.871h5.286c0.48,0,0.871-0.389,0.871-0.871v-0.242c0-0.48-0.391-0.871-0.871-0.871H23.564z"/>
	</g>
</g>
</svg>
