<?xml version="1.0" encoding="utf-8"?>
<!-- Generator: Adobe Illustrator 16.0.0, SVG Export Plug-In . SVG Version: 6.00 Build 0)  -->
<!DOCTYPE svg PUBLIC "-//W3C//DTD SVG 1.1//EN" "http://www.w3.org/Graphics/SVG/1.1/DTD/svg11.dtd">
<svg version="1.1" id="Calque_1" xmlns="http://www.w3.org/2000/svg" xmlns:xlink="http://www.w3.org/1999/xlink" x="0px" y="0px"
	 width="100px" height="150px" viewBox="0 0 100 150" enable-background="new 0 0 100 150" xml:space="preserve">
<g>
	<g>
		<g>
			<path fill="#FFFFFF" d="M50.002,1.025c-27.194,0-49.318,22.124-49.318,49.317c0,8.163,2.042,16.257,5.921,23.437l40.699,73.606
				c0.542,0.98,1.573,1.59,2.698,1.59c1.12,0,2.154-0.609,2.695-1.59l40.714-73.631c3.864-7.155,5.905-15.249,5.905-23.412
				C99.316,23.149,77.193,1.025,50.002,1.025z M88.001,70.794l-37.999,68.729L12.014,70.821C8.634,64.566,6.85,57.485,6.85,50.342
				C6.85,26.547,26.206,7.19,50.002,7.19c23.794,0,43.15,19.357,43.15,43.151C93.151,57.485,91.367,64.566,88.001,70.794z"/>
			<path fill="#FFFFFF" d="M50.002,25.684c-13.597,0-24.659,11.062-24.659,24.658C25.343,63.938,36.405,75,50.002,75
				c13.595,0,24.656-11.062,24.656-24.658C74.658,36.745,63.597,25.684,50.002,25.684z M50.002,68.835
				c-10.2,0-18.495-8.295-18.495-18.493s8.295-18.494,18.495-18.494c10.197,0,18.492,8.296,18.492,18.494
				S60.199,68.835,50.002,68.835z"/>
		</g>
	</g>
</g>
</svg>
