<?xml version="1.0" encoding="utf-8"?>
<!-- Generator: Adobe Illustrator 16.0.0, SVG Export Plug-In . SVG Version: 6.00 Build 0)  -->
<!DOCTYPE svg PUBLIC "-//W3C//DTD SVG 1.1//EN" "http://www.w3.org/Graphics/SVG/1.1/DTD/svg11.dtd">
<svg version="1.1" id="Calque_1" xmlns="http://www.w3.org/2000/svg" xmlns:xlink="http://www.w3.org/1999/xlink" x="0px" y="0px"
	 width="20px" height="20px" viewBox="0 0 20 20" enable-background="new 0 0 20 20" xml:space="preserve">
<path fill="#00a8a3" d="M-310.208-3775.19h-7.654c-3.332,0-6.043-2.711-6.043-6.044v-7.654c0-3.331,2.711-6.044,6.043-6.044h7.654
	c3.336,0,6.045,2.713,6.045,6.044v7.654C-304.162-3777.901-306.871-3775.19-310.208-3775.19 M-317.861-3793.454
	c-2.514,0-4.562,2.047-4.562,4.565v7.654c0,2.517,2.048,4.566,4.562,4.566h7.654c2.52,0,4.565-2.049,4.565-4.566v-7.654
	c0-2.518-2.045-4.565-4.565-4.565H-317.861z"/>
<path fill="#00a8a3" d="M-314.033-3780.067c-2.752,0-4.992-2.24-4.992-4.994c0-2.753,2.24-4.994,4.992-4.994
	c2.754,0,4.994,2.241,4.994,4.994C-309.039-3782.307-311.279-3780.067-314.033-3780.067 M-314.033-3788.541
	c-1.918,0-3.48,1.56-3.48,3.479c0,1.919,1.562,3.48,3.48,3.48s3.48-1.561,3.48-3.48
	C-310.553-3786.98-312.115-3788.541-314.033-3788.541"/>
<path fill="#00a8a3" d="M-307.195-3790.597c0,0.717-0.58,1.298-1.299,1.298c-0.721,0-1.303-0.581-1.303-1.298
	c0-0.72,0.582-1.302,1.303-1.302C-307.775-3791.898-307.195-3791.316-307.195-3790.597"/>
<rect x="-950" y="-3805" fill="none" width="1920" height="7630"/>
<path fill="#00a8a3" d="M-310.208-3775.19h-7.654c-3.332,0-6.043-2.711-6.043-6.044v-7.654c0-3.331,2.711-6.044,6.043-6.044h7.654
	c3.336,0,6.045,2.713,6.045,6.044v7.654C-304.162-3777.901-306.871-3775.19-310.208-3775.19 M-317.861-3793.454
	c-2.514,0-4.562,2.047-4.562,4.565v7.654c0,2.517,2.048,4.566,4.562,4.566h7.654c2.52,0,4.565-2.049,4.565-4.566v-7.654
	c0-2.518-2.045-4.565-4.565-4.565H-317.861z"/>
<path fill="#00a8a3" d="M-314.033-3780.067c-2.752,0-4.992-2.24-4.992-4.994c0-2.753,2.24-4.994,4.992-4.994
	c2.754,0,4.994,2.241,4.994,4.994C-309.039-3782.307-311.279-3780.067-314.033-3780.067 M-314.033-3788.541
	c-1.918,0-3.48,1.56-3.48,3.479c0,1.919,1.562,3.48,3.48,3.48s3.48-1.561,3.48-3.48
	C-310.553-3786.98-312.115-3788.541-314.033-3788.541"/>
<path fill="#00a8a3" d="M-307.195-3790.597c0,0.717-0.58,1.298-1.299,1.298c-0.721,0-1.303-0.581-1.303-1.298
	c0-0.72,0.582-1.302,1.303-1.302C-307.775-3791.898-307.195-3791.316-307.195-3790.597"/>
<rect x="-950" y="-3805" fill="none" width="1920" height="7630"/>
<path fill="#00a8a3" d="M-310.208-3775.19h-7.654c-3.332,0-6.043-2.711-6.043-6.044v-7.654c0-3.331,2.711-6.044,6.043-6.044h7.654
	c3.336,0,6.045,2.713,6.045,6.044v7.654C-304.162-3777.901-306.871-3775.19-310.208-3775.19 M-317.861-3793.454
	c-2.514,0-4.562,2.047-4.562,4.565v7.654c0,2.517,2.048,4.566,4.562,4.566h7.654c2.52,0,4.565-2.049,4.565-4.566v-7.654
	c0-2.518-2.045-4.565-4.565-4.565H-317.861z"/>
<path fill="#00a8a3" d="M-314.033-3780.067c-2.752,0-4.992-2.24-4.992-4.994c0-2.753,2.24-4.994,4.992-4.994
	c2.754,0,4.994,2.241,4.994,4.994C-309.039-3782.307-311.279-3780.067-314.033-3780.067 M-314.033-3788.541
	c-1.918,0-3.48,1.56-3.48,3.479c0,1.919,1.562,3.48,3.48,3.48s3.48-1.561,3.48-3.48
	C-310.553-3786.98-312.115-3788.541-314.033-3788.541"/>
<path fill="#00a8a3" d="M-307.195-3790.597c0,0.717-0.58,1.298-1.299,1.298c-0.721,0-1.303-0.581-1.303-1.298
	c0-0.72,0.582-1.302,1.303-1.302C-307.775-3791.898-307.195-3791.316-307.195-3790.597"/>
<rect x="-950" y="-3805" fill="none" width="1920" height="7630"/>
<path fill="#00a8a3" d="M17.68,5.275c-0.222-0.223-0.557-0.333-0.779-0.111l-5.887,4.445c-0.557,0.444-1.445,0.444-2.001,0l-6-4.445
	C2.79,4.942,2.456,4.942,2.234,5.275c-0.11,0.222-0.11,0.555,0.111,0.778l5.89,4.444c0.444,0.333,1.11,0.557,1.667,0.557
	c0.555,0,1.223-0.112,1.667-0.557l5.89-4.444C17.789,5.83,17.789,5.497,17.68,5.275 M17.68,5.275
	c-0.222-0.223-0.557-0.333-0.779-0.111l-5.887,4.445c-0.557,0.444-1.445,0.444-2.001,0l-6-4.445C2.79,4.942,2.456,4.942,2.234,5.275
	c-0.11,0.222-0.11,0.555,0.111,0.778l5.89,4.444c0.444,0.333,1.11,0.557,1.667,0.557c0.555,0,1.223-0.112,1.667-0.557l5.89-4.444
	C17.789,5.83,17.789,5.497,17.68,5.275 M17.68,5.275c-0.222-0.223-0.557-0.333-0.779-0.111l-5.887,4.445
	c-0.557,0.444-1.445,0.444-2.001,0l-6-4.445C2.79,4.942,2.456,4.942,2.234,5.275c-0.11,0.222-0.11,0.555,0.111,0.778l5.89,4.444
	c0.444,0.333,1.11,0.557,1.667,0.557c0.555,0,1.223-0.112,1.667-0.557l5.89-4.444C17.789,5.83,17.789,5.497,17.68,5.275
	 M17.68,5.275c-0.222-0.223-0.557-0.333-0.779-0.111l-5.887,4.445c-0.557,0.444-1.445,0.444-2.001,0l-6-4.445
	C2.79,4.942,2.456,4.942,2.234,5.275c-0.11,0.222-0.11,0.555,0.111,0.778l5.89,4.444c0.444,0.333,1.11,0.557,1.667,0.557
	c0.555,0,1.223-0.112,1.667-0.557l5.89-4.444C17.789,5.83,17.789,5.497,17.68,5.275 M17.68,5.275
	c-0.222-0.223-0.557-0.333-0.779-0.111l-5.887,4.445c-0.557,0.444-1.445,0.444-2.001,0l-6-4.445C2.79,4.942,2.456,4.942,2.234,5.275
	c-0.11,0.222-0.11,0.555,0.111,0.778l5.89,4.444c0.444,0.333,1.11,0.557,1.667,0.557c0.555,0,1.223-0.112,1.667-0.557l5.89-4.444
	C17.789,5.83,17.789,5.497,17.68,5.275 M17.569,14.054l-3.334-3.334c-0.224-0.222-0.557-0.222-0.778,0
	c-0.223,0.223-0.223,0.556,0,0.778l3.334,3.334c0.109,0.111,0.251,0.16,0.362,0.16s0.223-0.019,0.416-0.16
	C17.789,14.608,17.789,14.276,17.569,14.054 M2.375,14.831c0.191,0.142,0.302,0.16,0.414,0.16c0.11,0,0.251-0.049,0.362-0.16
	l3.333-3.334c0.222-0.222,0.222-0.555,0-0.778c-0.222-0.222-0.556-0.222-0.776,0l-3.333,3.334
	C2.151,14.276,2.151,14.608,2.375,14.831 M17.68,5.275c-0.222-0.223-0.557-0.333-0.779-0.111l-5.887,4.445
	c-0.557,0.444-1.445,0.444-2.001,0l-6-4.445C2.79,4.942,2.456,4.942,2.234,5.275c-0.11,0.222-0.11,0.555,0.111,0.778l5.89,4.444
	c0.444,0.333,1.11,0.557,1.667,0.557c0.555,0,1.223-0.112,1.667-0.557l5.89-4.444C17.789,5.83,17.789,5.497,17.68,5.275"/>
<path fill="#00a8a3" d="M19.831,3.763c-0.276-0.61-0.817-0.985-1.485-0.985H1.679c-0.656,0-1.251,0.362-1.518,0.954
	c-0.096,0.211-0.149,0.45-0.149,0.712v11.112c0.028,0.249,0.09,0.478,0.182,0.681c0.277,0.609,0.818,0.986,1.485,0.986h16.667
	c0.656,0,1.25-0.364,1.518-0.955c0.096-0.211,0.148-0.449,0.148-0.712V4.444C19.984,4.194,19.924,3.965,19.831,3.763 M1.679,16.11
	c-0.335,0-0.556-0.221-0.556-0.555V4.444c0-0.333,0.221-0.556,0.556-0.556h16.667c0.333,0,0.556,0.223,0.556,0.556v11.112
	c0,0.334-0.223,0.555-0.556,0.555H1.679z"/>
</svg>
