<?xml version="1.0" encoding="utf-8"?>
<!-- Generator: Adobe Illustrator 16.0.0, SVG Export Plug-In . SVG Version: 6.00 Build 0)  -->
<!DOCTYPE svg PUBLIC "-//W3C//DTD SVG 1.1//EN" "http://www.w3.org/Graphics/SVG/1.1/DTD/svg11.dtd">
<svg version="1.1" id="Calque_1" xmlns="http://www.w3.org/2000/svg" xmlns:xlink="http://www.w3.org/1999/xlink" x="0px" y="0px"
	 width="25px" height="25px" viewBox="0 0 90 90" enable-background="new 0 0 90 90" xml:space="preserve">
<g>
	<g>
		<circle fill="none" stroke="#00A8A3" stroke-miterlimit="10" cx="45" cy="45" r="44"/>
	</g>
	<g>
		<g>
			<g>
				<g>
					<g>
						<path fill="#00A8A3" d="M45.23,22.049c-7.968,0-14.446,6.481-14.446,14.442c0,2.395,0.596,4.765,1.733,6.868l11.925,21.562
							c0.157,0.285,0.458,0.463,0.789,0.463c0.328,0,0.631-0.178,0.789-0.463l11.927-21.568c1.133-2.097,1.729-4.467,1.729-6.862
							C59.674,28.53,53.193,22.049,45.23,22.049z M56.362,42.484L45.23,62.617L34.103,42.494c-0.987-1.833-1.517-3.91-1.517-6.003
							c0-6.967,5.674-12.637,12.644-12.637c6.969,0,12.639,5.67,12.639,12.637C57.869,38.584,57.348,40.661,56.362,42.484z"/>
						<path fill="#00A8A3" d="M45.23,66.186c-0.618,0-1.186-0.333-1.489-0.875L31.817,43.745c-1.2-2.222-1.833-4.727-1.833-7.254
							c0-8.401,6.839-15.243,15.246-15.243s15.245,6.842,15.245,15.243c0,2.527-0.633,5.028-1.827,7.241L46.72,65.311
							C46.413,65.853,45.844,66.186,45.23,66.186z M45.23,22.847c-7.524,0-13.647,6.123-13.647,13.645
							c0,2.264,0.566,4.503,1.637,6.487l12.01,21.606c0.038,0,0.074-0.018,0.093-0.051l11.922-21.568
							c1.064-1.972,1.63-4.214,1.63-6.475C58.875,28.97,52.753,22.847,45.23,22.847z M45.23,64.27L33.403,42.88
							c-1.057-1.959-1.614-4.166-1.614-6.389c0-7.408,6.031-13.435,13.441-13.435c7.41,0,13.437,6.027,13.437,13.435
							c0,2.227-0.555,4.43-1.602,6.371L45.23,64.27z M45.23,24.655c-6.528,0-11.844,5.309-11.844,11.836
							c0,1.96,0.493,3.905,1.42,5.624L45.23,60.967L55.662,42.1c0.921-1.704,1.406-3.645,1.406-5.608
							C57.068,29.964,51.76,24.655,45.23,24.655z"/>
					</g>
					<g>
						<path fill="#00A8A3" d="M45.23,29.273c-3.985,0-7.224,3.239-7.224,7.218c0,3.986,3.239,7.225,7.224,7.225
							c3.984,0,7.222-3.239,7.222-7.225C52.452,32.512,49.214,29.273,45.23,29.273z M45.23,41.912c-2.988,0-5.417-2.428-5.417-5.42
							c0-2.985,2.43-5.416,5.417-5.416c2.987,0,5.418,2.431,5.418,5.416C50.648,39.484,48.217,41.912,45.23,41.912z"/>
						<path fill="#00A8A3" d="M45.23,44.517c-4.425,0-8.022-3.602-8.022-8.025c0-4.419,3.598-8.018,8.022-8.018
							c4.422,0,8.025,3.599,8.025,8.018C53.255,40.915,49.652,44.517,45.23,44.517z M45.23,30.072c-3.545,0-6.425,2.881-6.425,6.419
							c0,3.543,2.88,6.428,6.425,6.428c3.542,0,6.425-2.885,6.425-6.428C51.655,32.953,48.772,30.072,45.23,30.072z M45.23,42.71
							c-3.427,0-6.216-2.789-6.216-6.219c0-3.426,2.79-6.213,6.216-6.213c3.427,0,6.216,2.788,6.216,6.213
							C51.446,39.921,48.657,42.71,45.23,42.71z M45.23,31.877c-2.546,0-4.618,2.072-4.618,4.614c0,2.546,2.072,4.619,4.618,4.619
							c2.546,0,4.618-2.073,4.618-4.619C49.848,33.95,47.776,31.877,45.23,31.877z"/>
					</g>
				</g>
			</g>
		</g>
	</g>
</g>
</svg>
