<svg version="1.2" baseProfile="tiny-ps" xmlns="http://www.w3.org/2000/svg" viewBox="0 0 16 13" width="18" height="18">
	<title>Calque 1</title>
	<style>
		tspan { white-space:pre }
		.shp0 { fill: #00a8a3 } 
	</style>
	<g id="Calque 1">
		<g id="&lt;Group&gt;">
			<g id="&lt;Group&gt;">
				<path id="&lt;Path&gt;" class="shp0" d="M6.77 10.05L6.77 9.06C6.17 8.68 5.79 8 5.79 7.24L5.79 5.65C5.79 4.43 6.77 3.44 7.99 3.44C9.2 3.44 10.19 4.43 10.19 5.65L10.19 7.24C10.19 8 9.81 8.68 9.2 9.06L9.2 10.05C9.61 10.35 10.93 11.27 13.15 12.78C14.37 11.49 15.2 9.75 15.2 7.77C15.2 3.82 11.94 0.56 7.99 0.56C4.04 0.56 0.78 3.82 0.78 7.77C0.78 9.75 1.54 11.49 2.83 12.78C5 11.27 6.32 10.35 6.77 10.05Z" />
			</g>
		</g>
	</g>
</svg>