<?xml version="1.0" encoding="utf-8"?>
<!-- Generator: Adobe Illustrator 16.0.0, SVG Export Plug-In . SVG Version: 6.00 Build 0)  -->
<!DOCTYPE svg PUBLIC "-//W3C//DTD SVG 1.1//EN" "http://www.w3.org/Graphics/SVG/1.1/DTD/svg11.dtd">
<svg version="1.1" id="Calque_1" xmlns="http://www.w3.org/2000/svg" xmlns:xlink="http://www.w3.org/1999/xlink" x="0px" y="0px"
	 width="20px" height="20px" viewBox="0 0 20 20" enable-background="new 0 0 20 20" xml:space="preserve">
<path fill="#00a8a3" d="M16.642,12.399c-0.684-0.712-1.57-0.712-2.283,0c-0.533,0.535-1.062,1.063-1.596,1.599
	c-0.148,0.149-0.268,0.176-0.443,0.09c-0.326-0.204-0.712-0.353-1.036-0.563c-1.54-0.978-2.842-2.225-3.997-3.639
	C6.724,9.175,6.221,8.435,5.864,7.577C5.808,7.4,5.808,7.31,5.957,7.161C6.519,6.657,7.02,6.126,7.554,5.592
	c0.738-0.739,0.738-1.599,0-2.338C7.109,2.812,6.695,2.396,6.279,1.98C5.835,1.538,5.42,1.094,4.975,0.678
	c-0.681-0.682-1.567-0.682-2.279,0C2.161,1.214,1.633,1.742,1.098,2.277C0.593,2.783,0.331,3.375,0.267,4.051
	c-0.09,1.098,0.179,2.161,0.565,3.196c0.801,2.161,2.013,4.027,3.462,5.772c1.985,2.37,4.35,4.235,7.11,5.566
	c1.244,0.593,2.518,1.064,3.879,1.156c0.975,0.057,1.807-0.206,2.485-0.95c0.442-0.536,0.977-0.979,1.447-1.478
	c0.712-0.742,0.712-1.627,0-2.338C18.356,14.117,17.499,13.259,16.642,12.399"/>
</svg>
