<?xml version="1.0" encoding="utf-8"?>
<!-- Generator: Adobe Illustrator 16.0.0, SVG Export Plug-In . SVG Version: 6.00 Build 0)  -->
<!DOCTYPE svg PUBLIC "-//W3C//DTD SVG 1.1//EN" "http://www.w3.org/Graphics/SVG/1.1/DTD/svg11.dtd">
<svg version="1.1" id="Calque_1" xmlns="http://www.w3.org/2000/svg" xmlns:xlink="http://www.w3.org/1999/xlink" x="0px" y="0px"
	 width="30px" height="30px" viewBox="0 0 30 30" enable-background="new 0 0 30 30" xml:space="preserve">
<g>
	<g>
		<path fill="#FCC200" d="M13.809,27.619C6.195,27.619,0,21.425,0,13.811C0,6.196,6.195,0,13.809,0
			c7.615,0,13.808,6.195,13.808,13.811C27.617,21.425,21.424,27.619,13.809,27.619z M13.809,3.946c-5.439,0-9.864,4.426-9.864,9.865
			c0,5.439,4.425,9.864,9.864,9.864s9.865-4.425,9.865-9.864C23.674,8.372,19.248,3.946,13.809,3.946z"/>
	</g>
	<g>
		
			<rect x="20.835" y="23.416" transform="matrix(0.7071 0.7071 -0.7071 0.7071 25.3871 -10.5145)" fill="#FCC200" width="9.101" height="3.944"/>
	</g>
</g>
</svg>
