<?xml version="1.0" encoding="utf-8"?>
<!-- Generator: Adobe Illustrator 16.0.0, SVG Export Plug-In . SVG Version: 6.00 Build 0)  -->
<!DOCTYPE svg PUBLIC "-//W3C//DTD SVG 1.1//EN" "http://www.w3.org/Graphics/SVG/1.1/DTD/svg11.dtd">
<svg version="1.1" id="Calque_1" xmlns="http://www.w3.org/2000/svg" xmlns:xlink="http://www.w3.org/1999/xlink" x="0px" y="0px"
	 width="70px" height="70px" viewBox="0 0 90 90" enable-background="new 0 0 90 90" xml:space="preserve">
<g>
	<g>
		<circle fill="none" stroke="#00A8A3" stroke-miterlimit="10" cx="45" cy="45" r="44"/>
	</g>
	<g>
		<path fill="#00A8A3" d="M63.743,40.975H26.256c-0.854,0-1.538,0.693-1.538,1.538v25.183c0,0.845,0.684,1.538,1.538,1.538h37.487
			c0.845,0,1.538-0.693,1.538-1.538V42.513C65.281,41.668,64.588,40.975,63.743,40.975z M46.726,56.454v4.614
			c0,0.847-0.684,1.538-1.538,1.538h-0.385c-0.845,0-1.538-0.691-1.538-1.538v-4.614c-2.122-0.723-3.652-2.729-3.652-5.098
			c0-2.977,2.415-5.382,5.383-5.382c2.977,0,5.383,2.406,5.383,5.382C50.379,53.726,48.855,55.731,46.726,56.454z"/>
		<path fill="#00A8A3" d="M60.866,36.238c0,1.231-0.146,2.439-0.422,3.585h-7.336c0.507-1.093,0.792-2.309,0.792-3.585
			c0-4.698-3.813-8.504-8.513-8.504c-4.697,0-8.504,3.806-8.504,8.504c0,1.276,0.285,2.492,0.792,3.585h-7.336
			c-0.275-1.146-0.422-2.354-0.422-3.585c0-8.542,6.929-15.471,15.472-15.471C53.939,20.768,60.866,27.696,60.866,36.238z"/>
	</g>
</g>
</svg>
