<?xml version="1.0" encoding="utf-8"?>
<!-- Generator: Adobe Illustrator 16.0.0, SVG Export Plug-In . SVG Version: 6.00 Build 0)  -->
<!DOCTYPE svg PUBLIC "-//W3C//DTD SVG 1.1//EN" "http://www.w3.org/Graphics/SVG/1.1/DTD/svg11.dtd">
<svg version="1.1" id="Calque_1" xmlns="http://www.w3.org/2000/svg" xmlns:xlink="http://www.w3.org/1999/xlink" x="0px" y="0px"
	 width="90px" height="90px" viewBox="0 0 90 90" enable-background="new 0 0 90 90" xml:space="preserve">
<g>
	<g>
		<circle fill="none" stroke="#00A8A3" stroke-miterlimit="10" cx="45" cy="45" r="44"/>
	</g>
	<g id="Layer_2_1_">
		<g id="Layer_2-2_2_">
			<path fill="none" stroke="#00A8A3" stroke-width="3" stroke-miterlimit="10" d="M29.373,42.107h0.185
				c1.117,0,2.028,0.908,2.028,2.028v11.86c0,1.12-0.911,2.026-2.028,2.026h-0.185c-1.121,0-2.03-0.906-2.03-2.026v-11.86
				C27.342,43.016,28.252,42.107,29.373,42.107z"/>
			<path fill="none" stroke="#00A8A3" stroke-width="3" stroke-miterlimit="10" d="M60.352,58.015h-0.183
				c-1.123,0-2.03-0.91-2.03-2.031V44.125c0-1.12,0.907-2.028,2.03-2.028h0.183c1.119,0,2.028,0.909,2.028,2.028v11.859
				C62.38,57.104,61.471,58.015,60.352,58.015z"/>
			<path fill="none" stroke="#00A8A3" stroke-width="3" stroke-miterlimit="10" d="M27.342,44.083v-3.961
				c0-9.671,7.843-17.511,17.515-17.511l0,0l0,0c9.673,0,17.517,7.838,17.523,17.511v3.961"/>
			<path fill="none" stroke="#00A8A3" stroke-width="3" stroke-miterlimit="10" d="M62.38,55.995c0,4.37-4.209,9.625-8.568,9.625
				h-3.4"/>
			<path fill="none" stroke="#00A8A3" stroke-width="3" stroke-miterlimit="10" d="M49.798,65.534v0.183
				c0,1.119-0.906,2.029-2.028,2.029h-3.992c-1.121,0-2.029-0.91-2.029-2.029v-0.183c0-1.122,0.908-2.03,2.029-2.03h3.992
				C48.892,63.504,49.798,64.412,49.798,65.534z"/>
		</g>
	</g>
</g>
</svg>
