<?xml version="1.0" encoding="utf-8"?>
<!-- Generator: Adobe Illustrator 16.0.0, SVG Export Plug-In . SVG Version: 6.00 Build 0)  -->
<!DOCTYPE svg PUBLIC "-//W3C//DTD SVG 1.1//EN" "http://www.w3.org/Graphics/SVG/1.1/DTD/svg11.dtd">
<svg version="1.1" id="Calque_1" xmlns="http://www.w3.org/2000/svg" xmlns:xlink="http://www.w3.org/1999/xlink" x="0px" y="0px"
	 width="20px" height="20px" viewBox="0 0 20 20" enable-background="new 0 0 20 20" xml:space="preserve">
<path fill="#00a8a3" d="M-310.208-3775.19h-7.654c-3.332,0-6.043-2.711-6.043-6.044v-7.654c0-3.331,2.711-6.044,6.043-6.044h7.654
	c3.336,0,6.045,2.713,6.045,6.044v7.654C-304.162-3777.901-306.871-3775.19-310.208-3775.19 M-317.861-3793.454
	c-2.514,0-4.562,2.047-4.562,4.565v7.654c0,2.517,2.048,4.566,4.562,4.566h7.654c2.52,0,4.565-2.049,4.565-4.566v-7.654
	c0-2.518-2.045-4.565-4.565-4.565H-317.861z"/>
<path fill="#00a8a3" d="M-314.033-3780.067c-2.752,0-4.992-2.24-4.992-4.994c0-2.753,2.24-4.994,4.992-4.994
	c2.754,0,4.994,2.241,4.994,4.994C-309.039-3782.307-311.279-3780.067-314.033-3780.067 M-314.033-3788.541
	c-1.918,0-3.48,1.56-3.48,3.479c0,1.919,1.562,3.48,3.48,3.48s3.48-1.561,3.48-3.48
	C-310.553-3786.98-312.115-3788.541-314.033-3788.541"/>
<path fill="#00a8a3" d="M-307.195-3790.597c0,0.717-0.58,1.298-1.299,1.298c-0.721,0-1.303-0.581-1.303-1.298
	c0-0.72,0.582-1.302,1.303-1.302C-307.775-3791.898-307.195-3791.316-307.195-3790.597"/>
<rect x="-950" y="-3805" fill="none" width="1920" height="7630"/>
<path fill="#00a8a3" d="M-310.208-3775.19h-7.654c-3.332,0-6.043-2.711-6.043-6.044v-7.654c0-3.331,2.711-6.044,6.043-6.044h7.654
	c3.336,0,6.045,2.713,6.045,6.044v7.654C-304.162-3777.901-306.871-3775.19-310.208-3775.19 M-317.861-3793.454
	c-2.514,0-4.562,2.047-4.562,4.565v7.654c0,2.517,2.048,4.566,4.562,4.566h7.654c2.52,0,4.565-2.049,4.565-4.566v-7.654
	c0-2.518-2.045-4.565-4.565-4.565H-317.861z"/>
<path fill="#00a8a3" d="M-314.033-3780.067c-2.752,0-4.992-2.24-4.992-4.994c0-2.753,2.24-4.994,4.992-4.994
	c2.754,0,4.994,2.241,4.994,4.994C-309.039-3782.307-311.279-3780.067-314.033-3780.067 M-314.033-3788.541
	c-1.918,0-3.48,1.56-3.48,3.479c0,1.919,1.562,3.48,3.48,3.48s3.48-1.561,3.48-3.48
	C-310.553-3786.98-312.115-3788.541-314.033-3788.541"/>
<path fill="#00a8a3" d="M-307.195-3790.597c0,0.717-0.58,1.298-1.299,1.298c-0.721,0-1.303-0.581-1.303-1.298
	c0-0.72,0.582-1.302,1.303-1.302C-307.775-3791.898-307.195-3791.316-307.195-3790.597"/>
<rect x="-950" y="-3805" fill="none" width="1920" height="7630"/>
<path fill="#00a8a3" d="M-310.208-3775.19h-7.654c-3.332,0-6.043-2.711-6.043-6.044v-7.654c0-3.331,2.711-6.044,6.043-6.044h7.654
	c3.336,0,6.045,2.713,6.045,6.044v7.654C-304.162-3777.901-306.871-3775.19-310.208-3775.19 M-317.861-3793.454
	c-2.514,0-4.562,2.047-4.562,4.565v7.654c0,2.517,2.048,4.566,4.562,4.566h7.654c2.52,0,4.565-2.049,4.565-4.566v-7.654
	c0-2.518-2.045-4.565-4.565-4.565H-317.861z"/>
<path fill="#00a8a3" d="M-314.033-3780.067c-2.752,0-4.992-2.24-4.992-4.994c0-2.753,2.24-4.994,4.992-4.994
	c2.754,0,4.994,2.241,4.994,4.994C-309.039-3782.307-311.279-3780.067-314.033-3780.067 M-314.033-3788.541
	c-1.918,0-3.48,1.56-3.48,3.479c0,1.919,1.562,3.48,3.48,3.48s3.48-1.561,3.48-3.48
	C-310.553-3786.98-312.115-3788.541-314.033-3788.541"/>
<path fill="#00a8a3" d="M-307.195-3790.597c0,0.717-0.58,1.298-1.299,1.298c-0.721,0-1.303-0.581-1.303-1.298
	c0-0.72,0.582-1.302,1.303-1.302C-307.775-3791.898-307.195-3791.316-307.195-3790.597"/>
<rect x="-950" y="-3805" fill="none" width="1920" height="7630"/>
<path fill="#00a8a3" d="M20,3.958c-0.752,0.322-1.547,0.536-2.362,0.628c0.854-0.499,1.499-1.285,1.803-2.208
	c-0.803,0.463-1.686,0.792-2.604,0.969c-1.552-1.61-4.151-1.688-5.802-0.176c-1.067,0.977-1.521,2.432-1.188,3.82
	c-3.298-0.161-6.37-1.68-8.449-4.175C0.308,4.64,0.862,6.978,2.662,8.15c-0.649-0.021-1.287-0.19-1.854-0.5v0.051
	c0,1.903,1.373,3.541,3.289,3.917c-0.605,0.162-1.237,0.186-1.852,0.071c0.539,1.627,2.075,2.744,3.833,2.777
	C4.355,15.775,2.173,16.369,0,16.118c5.427,3.385,12.64,1.846,16.117-3.438c1.203-1.833,1.842-3.962,1.84-6.137
	c0-0.173,0-0.346-0.009-0.519c0.805-0.565,1.497-1.265,2.049-2.068L20,3.958z"/>
</svg>
