<?xml version="1.0" encoding="utf-8"?>
<!-- Generator: Adobe Illustrator 16.0.0, SVG Export Plug-In . SVG Version: 6.00 Build 0)  -->
<!DOCTYPE svg PUBLIC "-//W3C//DTD SVG 1.1//EN" "http://www.w3.org/Graphics/SVG/1.1/DTD/svg11.dtd">
<svg version="1.1" id="Calque_1" xmlns="http://www.w3.org/2000/svg" xmlns:xlink="http://www.w3.org/1999/xlink" x="0px" y="0px"
	 width="100px" height="100px" viewBox="0 0 100 100" enable-background="new 0 0 100 100" xml:space="preserve">
<path id="Video_Play_3_" fill="#FFFFFF" d="M50.002,100C22.387,100,0,77.614,0,50C0,22.385,22.387,0,50.002,0
	C77.614,0,100,22.385,100,50C99.979,77.604,77.604,99.978,50.002,100z M50.002,4C24.595,4,4,24.595,4,50s20.594,46,46.001,46
	c25.403,0,45.999-20.595,45.999-46C95.979,24.604,75.396,4.022,50.002,4z M38,72.001c-1.105,0-2-0.896-2-2.001V30
	c0-1.104,0.897-2,2.002-1.997c0.382,0,0.756,0.111,1.078,0.316l31.999,20c0.939,0.582,1.228,1.816,0.647,2.756
	c-0.163,0.261-0.384,0.481-0.647,0.645l-31.999,20C38.754,71.914,38.379,72.01,38,72.001z M40,33.601v32.801L66.199,50L40,33.601z"
	/>
</svg>
