<?xml version="1.0" encoding="utf-8"?>
<!-- Generator: Adobe Illustrator 16.0.0, SVG Export Plug-In . SVG Version: 6.00 Build 0)  -->
<!DOCTYPE svg PUBLIC "-//W3C//DTD SVG 1.1//EN" "http://www.w3.org/Graphics/SVG/1.1/DTD/svg11.dtd">
<svg version="1.1" id="Calque_1" xmlns="http://www.w3.org/2000/svg" xmlns:xlink="http://www.w3.org/1999/xlink" x="0px" y="0px"
	 width="20px" height="20px" viewBox="0 0 20 20" enable-background="new 0 0 20 20" xml:space="preserve">
<path fill="#00a8a3" d="M17.247,3.277c1.316,0.088,2.095,0.787,2.332,2.098c0.562,3.078,0.561,6.172,0,9.251
	c-0.247,1.368-1.011,2.109-2.392,2.127c-4.781,0.059-9.562,0.061-14.344,0.015c-1.393-0.015-2.221-0.81-2.45-2.196
	c-0.494-2.985-0.556-5.988,0-8.974C0.7,3.958,1.36,3.31,2.998,3.248c2.324-0.09,4.656-0.023,6.983-0.023 M7.591,6.61v6.405
	c2.057-1.071,4.023-2.096,6.126-3.194C11.622,8.722,9.652,7.691,7.591,6.61"/>
</svg>
