<?xml version="1.0" encoding="utf-8"?>
<!-- Generator: Adobe Illustrator 16.0.0, SVG Export Plug-In . SVG Version: 6.00 Build 0)  -->
<!DOCTYPE svg PUBLIC "-//W3C//DTD SVG 1.1//EN" "http://www.w3.org/Graphics/SVG/1.1/DTD/svg11.dtd">
<svg version="1.1" id="Calque_1" xmlns="http://www.w3.org/2000/svg" xmlns:xlink="http://www.w3.org/1999/xlink" x="0px" y="0px"
	 width="125px" height="95px" viewBox="0 0 125 95" enable-background="new 0 0 125 95" xml:space="preserve">
<g>
	<g>
		<path fill="#00A8A3" d="M13.05,77.436c-0.742,0-1.515-0.598-1.783-1.314L6.147,61.799v14.234c0,0.773-0.596,1.402-1.371,1.402
			H2.157c-0.771,0-1.365-0.629-1.365-1.402v-18.08c0-0.777,0.594-1.402,1.34-1.402h5.921c0.774,0,1.517,0.625,1.757,1.369
			l4.285,12.443l4.288-12.443c0.234-0.744,0.979-1.369,1.751-1.369h5.926c0.746,0,1.342,0.625,1.342,1.402v18.08
			c0,0.773-0.596,1.402-1.37,1.402H23.41c-0.772,0-1.369-0.629-1.369-1.402V61.799l-5.12,14.322
			c-0.268,0.717-1.039,1.314-1.786,1.314H13.05z"/>
		<path fill="#00A8A3" d="M33.501,62.217c1.22-4.623,5.417-5.666,9.643-5.666h7.826c0.717,0,1.254,0.625,1.254,1.342v18.201
			c0,0.744-0.625,1.342-1.373,1.342h-2.734c-0.773,0-1.369-0.598-1.369-1.373v-3.668H36.419l-0.986,3.668
			c-0.203,0.775-0.947,1.373-1.723,1.373h-2.857c-0.775,0-1.221-0.598-1.01-1.342L33.501,62.217z M37.489,68.277h9.258v-7.611
			h-4.136c-1.876,0-3.366,1.133-3.843,2.928L37.489,68.277z"/>
		<path fill="#00A8A3" d="M73.384,56.551c0.775,0,1.371,0.598,1.371,1.369v1.643c0,1.314-0.775,2.031-1.371,2.602l-11.432,11.15
			h11.58c0.775,0,1.371,0.6,1.371,1.377v1.371c0,0.775-0.596,1.373-1.371,1.373H56.659c-0.775,0-1.373-0.598-1.373-1.373v-1.609
			c0-1.375,0.746-2.15,1.373-2.777l11.068-11.01H56.419c-0.773,0-1.367-0.596-1.367-1.371V57.92c0-0.771,0.594-1.369,1.367-1.369
			H73.384z"/>
		<path fill="#00A8A3" d="M79.665,62.217c1.225-4.623,5.418-5.666,9.643-5.666h7.832c0.713,0,1.246,0.625,1.246,1.342v18.201
			c0,0.744-0.625,1.342-1.369,1.342h-2.738c-0.773,0-1.367-0.598-1.367-1.373v-3.668h-10.33l-0.98,3.668
			c-0.209,0.775-0.953,1.373-1.727,1.373h-2.857c-0.775,0-1.221-0.598-1.012-1.342L79.665,62.217z M83.653,68.277h9.258v-7.611
			h-4.141c-1.871,0-3.361,1.133-3.838,2.928L83.653,68.277z"/>
		<path fill="#00A8A3" d="M108.03,69.799v6.264c0,0.744-0.596,1.373-1.367,1.373h-2.74c-0.744,0-1.369-0.629-1.369-1.373V57.92
			c0-0.771,0.596-1.369,1.34-1.369h11.996c4.346,0,7.588,2.504,7.588,6.625c0,3.221-2.471,4.711-5.477,5.305
			c1.219,0.453,2.113,1.496,3.303,3.371l2.65,4.211c0.477,0.775,0.268,1.373-0.508,1.373h-3.482c-0.744,0-1.752-0.598-2.23-1.373
			l-2.469-3.879c-0.746-1.166-1.813-2.385-3.689-2.385H108.03z M108.03,60.666v5.01h6.191c1.668,0,3.779-0.594,3.779-2.5
			c0-1.91-2.111-2.51-3.779-2.51H108.03z"/>
	</g>
	<g>
		<path fill="#BBBDBF" d="M30.429,94.596v-7.891h-2.517v-0.973h6.143v0.973h-2.522v7.891H30.429z"/>
		<path fill="#BBBDBF" d="M45.843,94.596l-1.633-3.83h-2.465v3.83h-1.101v-8.863h3.327c0.863,0,1.527,0.18,1.99,0.533
			c0.631,0.473,0.945,1.123,0.945,1.961c0,0.527-0.145,0.998-0.438,1.416c-0.289,0.418-0.689,0.701-1.195,0.846l1.729,4.107H45.843z
			 M43.837,89.857c0.355,0,0.648-0.029,0.877-0.088c0.232-0.064,0.441-0.197,0.641-0.402c0.299-0.299,0.449-0.689,0.449-1.162
			c0-0.555-0.205-0.969-0.609-1.244c-0.281-0.182-0.689-0.277-1.223-0.277h-2.227v3.174H43.837z"/>
		<path fill="#BBBDBF" d="M59.011,94.596l-0.881-2.588h-3.271l-0.807,2.588H53.13l2.871-8.863h1.26l2.895,8.863H59.011z
			 M56.532,86.922l-1.375,4.24h2.736L56.532,86.922z"/>
		<path fill="#BBBDBF" d="M69.761,94.596h-1.063l-2.988-8.863h1.174l2.443,7.305l2.463-7.305h0.965L69.761,94.596z"/>
		<path fill="#BBBDBF" d="M84.999,94.596h-5.711v-8.863h5.594v0.951h-4.49v2.82h3.561v0.893h-3.561v3.232h4.607V94.596z"/>
		<path fill="#BBBDBF" d="M97.089,94.596h-5.221v-8.863h1.105v7.875h4.115V94.596z"/>
	</g>
	<path fill="#00A8A3" d="M54.636,49.488c0,0-14.074-3.913-4.758-28.271c0,0,6.305-12.756,12.992-16.166c0,0-2.191-4.396-8.752,1.799
		c0,0-6.809,6.111-10.486,19.508C43.632,26.358,38.819,45.776,54.636,49.488z"/>
	<path fill="#00A8A3" d="M49.284,0.625c0,0-7.465-2.167-12.691,7.073c0,0-13.174,23.544,9.289,40.431c0,0-12.668-7.854-8.369-29.477
		C37.513,18.652,41.646,2.225,49.284,0.625z"/>
	<path fill="#BBBDBF" d="M72.134,15.976c0,0,2.916,8.799-7.619,13.983c0,0-9.943,5.351-8.514,10.3
		C56.001,40.259,49.89,33.739,72.134,15.976z"/>
	<path fill="#BBBDBF" d="M62.46,4.642c0,0,4.234,3.937-0.205,8.924c0,0-14.139,14.465-14.328,23.695c0,0-0.818,9.131,6.709,12.228
		c0,0-11.9-1.873-7.715-20.746C46.921,28.742,49.327,13.592,62.46,4.642z"/>
	<path fill="#BBBDBF" d="M49.284,0.625c0,0-6.949,0.444-11.578,17.054c0,0-3.95,13.273,2.322,24.775c0,0,3.664,4.42,5.854,5.675
		c0,0-10.898-7.61-3.715-30.455c0,0,3.512-12.146,11.773-15.65C53.94,2.023,52.392,0.5,49.284,0.625z"/>
	<path fill="#00A8A3" d="M83.653,17.122c0.012-0.023-0.016-0.057-0.035-0.084c-0.018-0.038-0.059-0.054-0.096-0.054l-1.395-0.22
		c-0.053-0.004-0.098-0.021-0.145-0.053c-0.049-0.031-0.076-0.069-0.088-0.135c-0.006-0.045,0-0.078,0.016-0.098l0.498-0.58
		l2.436-0.247l1.5-1.868c-0.004-0.041,0.004-0.063,0.018-0.08L86.358,13.7c-0.004-0.053-0.02-0.08-0.059-0.115
		c-0.043-0.025-0.088-0.049-0.127-0.053l-5.906-1.319c-0.096-0.021-0.15-0.076-0.16-0.159c0-0.025,0.014-0.081,0.053-0.138
		l0.383-0.426c0.004-0.022,0.016-0.042,0.037-0.048c0.023-0.014,0.041-0.021,0.053-0.023c0.021-0.009,0.066-0.012,0.145-0.023
		c0.072-0.019,0.125-0.023,0.139-0.023l7.711-0.629c0.021,0.006,0.049,0,0.086-0.002c0.035-0.018,0.059-0.025,0.076-0.054
		L90.585,8.5c0.098-0.134,0.242-0.231,0.438-0.292c0.188-0.063,0.365-0.107,0.533-0.123l0.102-0.008l0.107-0.007
		c0.156,0.028,0.273,0.09,0.342,0.19c0.07,0.102,0.105,0.207,0.125,0.338c0.025,0.184,0.014,0.375-0.043,0.587
		c-0.059,0.21-0.15,0.385-0.277,0.53l-1.865,2.041l0.934,7.658c-0.002,0.021-0.004,0.037-0.018,0.07
		c-0.018,0.025-0.029,0.051-0.045,0.059l-0.393,0.469c-0.014,0.02-0.033,0.026-0.057,0.03l-0.068,0.004
		c-0.029,0.004-0.064-0.001-0.102,0.007c-0.043-0.007-0.063-0.026-0.08-0.066l-2.551-5.328c-0.039-0.068-0.104-0.098-0.189-0.081
		c-0.041,0.001-0.068,0.009-0.082,0.028l-1.605,1.732c-0.006,0.004-0.025,0.032-0.037,0.062c-0.012,0.031-0.018,0.041-0.018,0.058
		l0.27,2.143c-0.004,0.007-0.008,0.02-0.021,0.055c-0.016,0.025-0.031,0.047-0.031,0.069l-0.475,0.554
		c-0.033,0.01-0.055,0.014-0.066,0.003h-0.012c-0.104,0.021-0.191-0.022-0.236-0.112l-0.498-1.279
		c-0.014-0.041-0.039-0.064-0.068-0.099c-0.031-0.03-0.072-0.048-0.105-0.044c-0.025,0.011-0.049,0.017-0.074,0.044
		c0,0-7.061,9.831-7.873,11.134l-1.326-1.207C76.671,25.343,83.165,18.003,83.653,17.122z"/>
	<path fill="#00A8A3" d="M86.147,14.337c0,0-26.389,34.181-30.139,25.068c0,0-4.396-6.77,16.176-23.064c0,0,1.203-0.972-2.166-1.584
		c0,0-3.057-0.654-8.072,4.062c0,0-12.174,11.57-10.627,21.466c0,0,1.102,8.708,8.541,4.568
		C59.86,44.853,70.452,40.96,86.147,14.337z"/>
</g>
</svg>
