<?xml version="1.0" encoding="utf-8"?>
<!-- Generator: Adobe Illustrator 16.0.0, SVG Export Plug-In . SVG Version: 6.00 Build 0)  -->
<!DOCTYPE svg PUBLIC "-//W3C//DTD SVG 1.1//EN" "http://www.w3.org/Graphics/SVG/1.1/DTD/svg11.dtd">
<svg version="1.1" id="Calque_1" xmlns="http://www.w3.org/2000/svg" xmlns:xlink="http://www.w3.org/1999/xlink" x="0px" y="0px"
	 width="70px" height="70px" viewBox="0 0 80 80" enable-background="new 0 0 80 80" xml:space="preserve">
<g id="Symbols">
	<g id="subscribe" transform="translate(-230.000000, -85.000000)">
		<g id="ico_email_subscribe" transform="translate(230.000000, 85.000000)">
			<path id="Shape" fill="#A0A9B2" d="M76.597,46.893c-3.057-0.293-5.949-1.283-8.527-2.559V5.156c0-0.949-0.242-1.868-0.682-2.656
				c0.17-0.146-0.859-1.128-0.844-1.112c-0.854-0.839-1.932-1.247-2.959-1.231c-0.016,0-59.076-0.001-59.198,0.001
				C1.897,0.191,0,2.499,0,5.156V16.34c0,0.648,0.526,1.174,1.174,1.174s1.174-0.526,1.174-1.174
				C2.454,4.916,2.106,4.89,2.667,3.766c0.414,0.533-0.7-0.413,22.224,15.74c0.205,0.144,0.44,0.213,0.674,0.213
				c1.138,0,1.616-1.475,0.676-2.135L4.772,2.504c7.514,0,52.605,0,58.527,0L34.661,22.619c-0.368,0.26-0.883,0.26-1.251,0
				l-3.327-2.336c-0.531-0.373-1.263-0.245-1.635,0.285c-0.373,0.531-0.245,1.263,0.286,1.636c2.907,1.874,3.571,2.961,5.302,2.961
				c0.71,0,1.394-0.216,1.975-0.624L65.448,3.864c0.52,1.153,0.174-0.39,0.273,39.19c-5.156-3.075-8.598-6.864-8.754-7.041
				c-2.383-2.783-6.037-3.867-9.684-3.535c-0.578-2.438-2.773-4.258-5.385-4.258c-3.054,0-5.536,2.483-5.536,5.535v0.424
				c-3.963,1.879-7.132,5.683-7.137,10.188c-0.006,0.225-0.143,4.613-1.687,9.766H4.441c-1.134,0-2.094-1.215-2.094-2.653V21.035
				c0-0.649-0.526-1.174-1.174-1.174S0,20.386,0,21.035v30.444c0,2.757,1.992,5.001,4.441,5.001h22.31
				c-1.166,3.105-2.881,6.301-5.399,8.901c-2.061,2.128-0.544,5.695,2.426,5.695h7.927c1.222,8.124,11.084,11.63,17.158,6.052
				c0.723-0.034,1.424-0.309,2.012-0.809l6.027-5.144c3.822,3.336,9.689,3.416,13.635-0.108c0.482-0.432,0.523-1.174,0.092-1.655
				c-0.432-0.485-1.174-0.526-1.658-0.094c-2.232,1.994-5.264,2.503-7.902,1.597c1.996-0.637,2.961-3.037,1.871-4.889l7.666-6.539
				c1.129,2.005,1.307,4.344,0.596,6.457c-0.207,0.615,0.123,1.279,0.736,1.488c0.605,0.205,1.277-0.117,1.488-0.737
				c0.986-2.918,0.631-6.124-1.008-8.753l6.029-5.145C80.696,50.882,79.56,47.178,76.597,46.893z M41.899,30.567
				c1.457,0,2.686,0.984,3.063,2.322c-0.254,0.067-0.508,0.141-0.758,0.223c-1.816-0.353-3.626-0.289-5.462,0.194
				C38.961,31.76,40.292,30.567,41.899,30.567z M48.065,74.563c-4.268,5.228-12.686,3.082-13.978-3.487c1.574,0,13.956,0,15.62,0
				C49.452,72.381,48.876,73.571,48.065,74.563z M51.784,72.459c0.135-0.449,0.236-0.911,0.307-1.383h1.314L51.784,72.459z
				 M60.019,68.729c-10.732,0-25.552,0-36.241,0c-0.897,0-1.355-1.077-0.739-1.714c3.019-3.121,4.972-6.935,6.232-10.535
				c2.222-6.317,2.302-12.085,2.304-12.102c0-5.828,7.937-11.864,15.44-7.748c5.547,3.051,5.197,7.741,5.209,7.77
				c0.037,2.328,0.563,6.167,1.561,9.732c1.182,4.18,3.037,8.272,5.848,11.631c1.113,1.338,1.383,1.348,1.408,1.885
				C61.067,68.169,60.679,68.729,60.019,68.729z M76.925,51.014c-1.797,1.532-15.441,13.173-15.504,13.226
				c-4.396-5.276-6.67-13.621-6.85-19.873c-0.008-4.047-2.561-7.552-6.033-9.6c0.123,0.024,4.102-0.207,6.65,2.78
				c4.945,5.523,13.18,10.919,21.186,11.682C77.263,49.315,77.603,50.434,76.925,51.014z"/>
		</g>
	</g>
</g>
</svg>
